<?xml version="1.0" encoding="us-ascii" standalone="no"?><svg xmlns="http://www.w3.org/2000/svg" xmlns:xlink="http://www.w3.org/1999/xlink" contentStyleType="text/css" height="594px" preserveAspectRatio="none" style="width:1047px;height:594px;background:#FFFFFF;" version="1.1" viewBox="0 0 1047 594" width="1047px" zoomAndPan="magnify"><defs/><g><!--cluster Authentication Flow--><g id="cluster_Authentication Flow"><path d="M8.5,6 L154.5,6 A3.75,3.75 0 0 1 157,8.5 L164,28.4883 L1029.5,28.4883 A2.5,2.5 0 0 1 1032,30.9883 L1032,585.29 A2.5,2.5 0 0 1 1029.5,587.79 L8.5,587.79 A2.5,2.5 0 0 1 6,585.29 L6,8.5 A2.5,2.5 0 0 1 8.5,6 " fill="none" style="stroke:#000000;stroke-width:1.5;"/><line style="stroke:#000000;stroke-width:1.5;" x1="6" x2="164" y1="28.4883" y2="28.4883"/><text fill="#000000" font-family="sans-serif" font-size="14" font-weight="bold" lengthAdjust="spacing" textLength="145" x="10" y="21.5352">Authentication Flow</text></g><!--cluster App Component--><g id="cluster_App Component"><rect fill="none" height="107.62" rx="2.5" ry="2.5" style="stroke:#181818;stroke-width:1.0;" width="319" x="272" y="57"/><text fill="#000000" font-family="sans-serif" font-size="14" font-weight="bold" lengthAdjust="spacing" textLength="116" x="373.5" y="72.5352">App Component</text></g><!--cluster AuthSession--><g id="cluster_AuthSession"><rect fill="none" height="153.55" rx="2.5" ry="2.5" style="stroke:#181818;stroke-width:1.0;" width="233" x="38" y="229.62"/><text fill="#000000" font-family="sans-serif" font-size="14" font-weight="bold" lengthAdjust="spacing" textLength="89" x="110" y="245.1552">AuthSession</text></g><!--cluster SecureStore--><g id="cluster_SecureStore"><rect fill="none" height="107.62" rx="2.5" ry="2.5" style="stroke:#181818;stroke-width:1.0;" width="280" x="311" y="252.58"/><text fill="#000000" font-family="sans-serif" font-size="14" font-weight="bold" lengthAdjust="spacing" textLength="83" x="409.5" y="268.1152">SecureStore</text></g><!--cluster WebBrowser--><g id="cluster_WebBrowser"><rect fill="none" height="92.31" rx="2.5" ry="2.5" style="stroke:#181818;stroke-width:1.0;" width="369" x="631" y="260.24"/><text fill="#000000" font-family="sans-serif" font-size="14" font-weight="bold" lengthAdjust="spacing" textLength="88" x="771.5" y="275.7752">WebBrowser</text></g><!--cluster Keycloak Server--><g id="cluster_Keycloak Server"><rect fill="none" height="107.62" rx="2.5" ry="2.5" style="stroke:#181818;stroke-width:1.0;" width="398" x="208" y="448.17"/><text fill="#000000" font-family="sans-serif" font-size="14" font-weight="bold" lengthAdjust="spacing" textLength="113" x="350.5" y="463.7052">Keycloak Server</text></g><g id="elem_GMN4"><path d="M296,100 L296,140.6211 L548,140.6211 L548,110 L538,100 L296,100 " fill="#FEFFDD" style="stroke:#181818;stroke-width:0.5;"/><path d="M538,100 L538,110 L548,110 L538,100 " fill="#FEFFDD" style="stroke:#181818;stroke-width:1.0;"/><text fill="#000000" font-family="sans-serif" font-size="13" lengthAdjust="spacing" textLength="142" x="302" y="117.5684">- Handles UI and state</text><text fill="#000000" font-family="sans-serif" font-size="13" lengthAdjust="spacing" textLength="231" x="302" y="132.8789">- Manages login, refresh, and logout</text></g><g id="elem_GMN8"><path d="M62.5,272.62 L62.5,359.1727 L227.5,359.1727 L227.5,282.62 L217.5,272.62 L62.5,272.62 " fill="#FEFFDD" style="stroke:#181818;stroke-width:0.5;"/><path d="M217.5,272.62 L217.5,282.62 L227.5,282.62 L217.5,272.62 " fill="#FEFFDD" style="stroke:#181818;stroke-width:1.0;"/><text fill="#000000" font-family="sans-serif" font-size="13" lengthAdjust="spacing" textLength="144" x="68.5" y="290.1884">- fetchDiscoveryAsync</text><text fill="#000000" font-family="sans-serif" font-size="13" lengthAdjust="spacing" textLength="92" x="68.5" y="305.4989">- AuthRequest</text><text fill="#000000" font-family="sans-serif" font-size="13" lengthAdjust="spacing" textLength="142" x="68.5" y="320.8095">- exchangeCodeAsync</text><text fill="#000000" font-family="sans-serif" font-size="13" lengthAdjust="spacing" textLength="94" x="68.5" y="336.12">- refreshAsync</text><text fill="#000000" font-family="sans-serif" font-size="13" lengthAdjust="spacing" textLength="92" x="68.5" y="351.4305">- revokeAsync</text></g><g id="elem_GMN12"><path d="M334.5,295.58 L334.5,336.2011 L547.5,336.2011 L547.5,305.58 L537.5,295.58 L334.5,295.58 " fill="#FEFFDD" style="stroke:#181818;stroke-width:0.5;"/><path d="M537.5,295.58 L537.5,305.58 L547.5,305.58 L537.5,295.58 " fill="#FEFFDD" style="stroke:#181818;stroke-width:1.0;"/><text fill="#000000" font-family="sans-serif" font-size="13" lengthAdjust="spacing" textLength="192" x="340.5" y="313.1484">- Stores accessToken securely</text><text fill="#000000" font-family="sans-serif" font-size="13" lengthAdjust="spacing" textLength="154" x="340.5" y="328.4589">- Retrieves accessToken</text></g><g id="elem_GMN16"><path d="M655,303.24 L655,328.5505 L957,328.5505 L957,313.24 L947,303.24 L655,303.24 " fill="#FEFFDD" style="stroke:#181818;stroke-width:0.5;"/><path d="M947,303.24 L947,313.24 L957,313.24 L947,303.24 " fill="#FEFFDD" style="stroke:#181818;stroke-width:1.0;"/><text fill="#000000" font-family="sans-serif" font-size="13" lengthAdjust="spacing" textLength="281" x="661" y="320.8084">- Handles logout via openAuthSessionAsync</text></g><g id="elem_GMN20"><path d="M231.5,491.17 L231.5,531.7911 L562.5,531.7911 L562.5,501.17 L552.5,491.17 L231.5,491.17 " fill="#FEFFDD" style="stroke:#181818;stroke-width:0.5;"/><path d="M552.5,491.17 L552.5,501.17 L562.5,501.17 L552.5,491.17 " fill="#FEFFDD" style="stroke:#181818;stroke-width:1.0;"/><text fill="#000000" font-family="sans-serif" font-size="13" lengthAdjust="spacing" textLength="169" x="237.5" y="508.7384">- Provides OIDC endpoints</text><text fill="#000000" font-family="sans-serif" font-size="13" lengthAdjust="spacing" textLength="310" x="237.5" y="524.0489">- Handles authentication and token management</text></g><!--link App Component to GMN4--><g id="link_App Component_GMN4"><path d="M582.19,120.31 C570.93,120.31 559.67,120.31 548.41,120.31 " fill="none" id="App Component-GMN4" style="stroke:#181818;stroke-width:1.0;stroke-dasharray:7.0,7.0;"/></g><!--link AuthSession to GMN8--><g id="link_AuthSession_GMN8"><path d="M262.18,315.89 C250.78,315.89 239.37,315.89 227.97,315.89 " fill="none" id="AuthSession-GMN8" style="stroke:#181818;stroke-width:1.0;stroke-dasharray:7.0,7.0;"/></g><!--link SecureStore to GMN12--><g id="link_SecureStore_GMN12"><path d="M582.17,315.89 C570.71,315.89 559.24,315.89 547.78,315.89 " fill="none" id="SecureStore-GMN12" style="stroke:#181818;stroke-width:1.0;stroke-dasharray:7.0,7.0;"/></g><!--link WebBrowser to GMN16--><g id="link_WebBrowser_GMN16"><path d="M991.19,315.89 C979.96,315.89 968.72,315.89 957.49,315.89 " fill="none" id="WebBrowser-GMN16" style="stroke:#181818;stroke-width:1.0;stroke-dasharray:7.0,7.0;"/></g><!--link Keycloak Server to GMN20--><g id="link_Keycloak Server_GMN20"><path d="M597.17,511.48 C585.67,511.48 574.17,511.48 562.67,511.48 " fill="none" id="Keycloak Server-GMN20" style="stroke:#181818;stroke-width:1.0;stroke-dasharray:7.0,7.0;"/></g><!--link App Component to AuthSession--><g id="link_App Component_AuthSession"><path d="M575.9998,164.8775 C573.2044,170.9912 569.3375,176.5625 564,180.62 C545.67,194.54 378.92,181.59 357,188.62 C337.75,194.79 332.74,198.78 319,213.62 C301.8,232.195 287.965,257.0175 278.35,277.4388 C275.9463,282.5441 273.8063,287.3743 271.9434,291.7631 C271.7105,292.3117 271.482,292.8534 271.2578,293.3878 C271.2017,293.5215 273.4609,288.1192 273.4054,288.2519 " fill="none" id="App Component-to-AuthSession" style="stroke:#181818;stroke-width:1.0;"/><polygon fill="#181818" points="271.0905,293.7873,278.2531,287.0274,273.0196,289.1745,270.8725,283.9409,271.0905,293.7873" style="stroke:#181818;stroke-width:1.0;"/><text fill="#000000" font-family="sans-serif" font-size="13" lengthAdjust="spacing" textLength="216" x="358" y="202.1884">Uses for login, refresh, and logout</text></g><!--link AuthSession to Keycloak Server--><g id="link_AuthSession_Keycloak Server"><path d="M271.0048,337.1644 C271.2183,337.6351 271.436,338.1111 271.658,338.592 C273.4341,342.4393 275.4844,346.6041 277.81,350.9188 C287.1125,368.1775 300.82,387.835 319,399.17 C385.67,440.74 415.98,414.89 494,424.17 C512.62,426.38 563.75,419.98 578,432.17 C581.305,434.9988 584.1028,438.2908 586.4678,441.8924 C587.6503,443.6932 588.7246,445.5714 589.7,447.5078 C589.761,447.6288 587.1576,442.3739 587.2178,442.4954 " fill="none" id="AuthSession-to-Keycloak Server" style="stroke:#181818;stroke-width:1.0;"/><polygon fill="#181818" points="589.8817,447.8716,589.4699,438.0313,587.6618,443.3914,582.3017,441.5832,589.8817,447.8716" style="stroke:#181818;stroke-width:1.0;"/><text fill="#000000" font-family="sans-serif" font-size="13" lengthAdjust="spacing" textLength="229" x="495" y="420.7384">Communicates with OIDC endpoints</text></g><!--link App Component to SecureStore--><g id="link_App Component_SecureStore"><path d="M583,164.8611 C583,165.1729 583,165.4858 583,165.7997 C583,166.4276 583,167.0597 583,167.6958 C583,172.7846 583,178.1313 583,183.6498 C583,194.6869 583,206.4112 583,218.135 C583,223.9969 583,229.8586 583,235.6342 C583,238.5219 583,241.3882 583,244.2221 C583,245.6391 583,247.048 583,248.4475 C583,249.1473 583,249.8447 583,250.5395 C583,250.887 583,251.2338 583,251.5799 C583,251.753 583,245.9259 583,246.0987 " fill="none" id="App Component-to-SecureStore" style="stroke:#181818;stroke-width:1.0;"/><polygon fill="#181818" points="583,252.0987,587,243.0987,583,247.0987,579,243.0987,583,252.0987" style="stroke:#181818;stroke-width:1.0;"/><text fill="#000000" font-family="sans-serif" font-size="13" lengthAdjust="spacing" textLength="171" x="584" y="202.1884">Stores and retrieves tokens</text></g><!--link App Component to WebBrowser--><g id="link_App Component_WebBrowser"><path d="M591.0431,123.9092 C591.2009,123.9598 591.361,124.0111 591.5232,124.0631 C591.8477,124.1671 592.1809,124.2738 592.5227,124.3832 C597.9922,126.1333 605.6728,128.5679 615.1825,131.5233 C634.2019,137.4341 660.5375,145.4281 691.1325,154.1962 C752.3225,171.7325 830.55,192.365 901.36,205.62 C917.11,208.56 961.26,202.72 973,213.62 C981.26,221.2875 986.605,231.3144 989.9695,242.075 C991.6518,247.4553 992.8389,253.0191 993.6478,258.563 C993.6983,258.9095 993.7474,259.256 993.795,259.6023 C993.8189,259.7754 993.0488,254.0012 993.0719,254.1743 " fill="none" id="App Component-to-WebBrowser" style="stroke:#181818;stroke-width:1.0;"/><polygon fill="#181818" points="993.8654,260.1216,996.64,250.6717,993.2042,255.1655,988.7103,251.7296,993.8654,260.1216" style="stroke:#181818;stroke-width:1.0;"/><text fill="#000000" font-family="sans-serif" font-size="13" lengthAdjust="spacing" textLength="137" x="902.36" y="202.1884">Opens logout session</text></g><!--link WebBrowser to Keycloak Server--><g id="link_WebBrowser_Keycloak Server"><path d="M992.8237,352.9242 C992.7968,353.1953 992.769,353.4669 992.7403,353.739 C992.6254,354.8273 992.4955,355.9231 992.3492,357.0236 C992.0567,359.2248 991.6989,361.4454 991.2653,363.6652 C990.3979,368.1048 989.2273,372.5413 987.6692,376.813 C984.5531,385.3562 979.8875,393.24 973,399.17 C955.66,414.1 892.69,402.17 870.36,407.17 C808.175,421.085 741.225,446.33 689.265,468.38 C663.285,479.405 641.0525,489.6312 625.0369,497.2431 C621.033,499.1461 617.4176,500.8857 614.2294,502.4335 C612.6353,503.2074 611.148,503.9333 609.7723,504.6078 C609.0844,504.945 608.4244,505.2694 607.793,505.5804 C607.4773,505.736 607.1687,505.8882 606.8673,506.037 C606.7166,506.1114 611.9464,503.5262 611.7994,503.5989 " fill="none" id="WebBrowser-to-Keycloak Server" style="stroke:#181818;stroke-width:1.0;"/><polygon fill="#181818" points="606.4206,506.2576,616.2612,505.8554,610.9029,504.042,612.7162,498.6837,606.4206,506.2576" style="stroke:#181818;stroke-width:1.0;"/><text fill="#000000" font-family="sans-serif" font-size="13" lengthAdjust="spacing" textLength="168" x="871.36" y="420.7384">Handles logout redirection</text></g><!--SRC=[bLH1JiCm4Bpd5IlEz0Cz844HeaAeg05nDkwsiPfuWxr9YH1_PnqWIjmcW4_jUiOxinx7xuqjbLC5Q2fAicWvvIP7SAXPsLsEIL8glLSxXBFBYZC16AtOa8MRd0vdy9w0h8ujgBA4nS_Vd_smBB6SQtOP0srZN8SAQmQtocvozF2q1Fa5dXLZ1BbNLbHvo6bdxBa8tZhqsNcBbnfLt15GIg5xM_X8ZXIBhnIz5rDJUdkeICeMMMVNnckgqJMNlh4wGWJo6byhz1pju9lEPD2ue0sUOdxxEhrLqpuY_M8rHLqvJ9aSJbZjewAURT63qbf6yIZjBVWMdJSHSeti3DP3y5zrFkFBbQE3HpSXimSQYSzN3g0s2gX4sxl2Vqtj3XkTazf3YgwUb1GZ8rqFZcgp4M6hvVKYT2t9MFOZwjNmlOLWSplneer-8NjZ3iH3_11diuiewdDuyj9cIsxg4GqvxIb7yvY7HaLbWrGvyM0uYosUb3E8uxmBbpHtNNfQooFyVapci98hxkxSVobE1fWnzL5U76vC-00A_nC0]--></g></svg>